<?xml version="1.0" encoding="utf-8"?>
<!-- Generator: Adobe Illustrator 26.3.1, SVG Export Plug-In . SVG Version: 6.00 Build 0)  -->
<svg version="1.1" id="Ebene_2" xmlns="http://www.w3.org/2000/svg" xmlns:xlink="http://www.w3.org/1999/xlink" x="0px" y="0px"
	 viewBox="0 0 1230 300" style="enable-background:new 0 0 1230 300;" xml:space="preserve">
<style type="text/css">
	.st0{fill:none;stroke:#4B4B4D;stroke-width:5.5;}
	.st1{fill:#58AADA;}
	.st2{fill:#F8C901;}
	.st3{fill:#4B4B4D;}
</style>
<g>
	<path class="st0" d="M245.3,37.9c68.6-13.1,134.8,31.9,147.9,100.5c13.1,68.6-31.9,134.8-100.5,147.9
		c-68.6,13.1-134.8-31.8-147.9-100.4C131.7,117.2,176.7,51,245.3,37.9z"/>
	<path class="st1" d="M273.1,104c32,2.3,56.2,30.1,54,62.2c-2.3,32-30.1,56.2-62.2,54c-32.1-2.3-56.2-30.1-54-62.2
		C213.2,125.9,241,101.7,273.1,104"/>
	<path class="st1" d="M210.7,235.3c15.7,10.2,20.1,31.1,9.9,46.8c-10.2,15.7-31.2,20.1-46.8,9.9c-15.7-10.2-20.1-31.2-9.9-46.8
		C174,229.6,195,225.2,210.7,235.3"/>
	<path class="st1" d="M360.4,236.2c15.7,10.2,20.1,31.1,9.9,46.8c-10.2,15.7-31.2,20.2-46.8,9.9c-15.7-10.2-20.1-31.2-9.9-46.8
		C323.7,230.5,344.7,226.1,360.4,236.2"/>
	<path class="st2" d="M408.3,96.4c15.7,10.2,20.1,31.1,9.9,46.8c-10.2,15.7-31.2,20.2-46.8,9.9c-15.7-10.2-20.1-31.2-9.9-46.8
		C371.6,90.7,392.6,86.2,408.3,96.4"/>
	<path class="st1" d="M290.1,7c15.7,10.2,20.1,31.1,9.9,46.8c-10.2,15.7-31.2,20.2-46.8,9.9c-15.7-10.2-20.1-31.2-9.9-46.8
		C253.4,1.2,274.4-3.2,290.1,7"/>
	<path class="st1" d="M167.6,93.5c15.7,10.2,20.1,31.2,9.9,46.8c-10.2,15.7-31.2,20.2-46.8,9.9c-15.7-10.2-20.1-31.2-9.9-46.8
		C130.9,87.7,151.9,83.3,167.6,93.5"/>
	<g>
		<path class="st1" d="M571.5,239.2c0,8.4-2,16.4-6.1,24c-8.9,16.1-25,25.6-48.4,28.3c-5.5,0.7-10.7,1.1-15.5,1.1
			c-23.4,0-42.7-6.2-57.9-18.5c-3-2.6-7.1-6.9-12.2-12.9l29.2-18.3c3.8,3.8,6,6,6.8,6.5c10.3,8.6,22.9,12.8,37.7,12.8
			c4.6,0,8.6-0.5,12-1.5c1.2-0.3,2.8-0.8,4.9-1.6c2.1-0.8,4.5-2.6,7.3-5.3c2.8-2.8,4.1-5.9,4.1-9.4c0-1.9-0.4-3.6-1.1-5.2
			c-0.7-1.6-1.9-2.9-3.4-3.9c-1.5-1-3-1.9-4.5-2.6c-1.5-0.7-3.5-1.4-6.1-2c-2.6-0.6-4.7-1-6.3-1.2c-1.6-0.2-3.8-0.5-6.8-0.9
			c-2.9-0.4-4.9-0.6-6.1-0.8c-7.6-0.9-14.8-2.2-21.8-3.9c-13.2-3.3-22.9-8.7-29-16.1c-2.9-3.3-5.1-7.1-6.5-11.3
			c-1.3-4.4-2-8.9-2-13.5c0-3.2,0.3-6.8,0.9-10.7c1.7-9.7,6.2-17.9,13.3-24.6c11.3-10.7,27.3-16.1,47.9-16.1
			c18.9,0,35.8,5.1,50.7,15.2c3.6,2.5,9.3,7,17,13.7l-28.3,20.3c-8.6-8.4-17.2-14-25.9-16.8c-6.5-1.4-11.3-2.2-14.4-2.2
			c-7.3,0-12.9,1.7-16.9,5.1c-4,3.4-6,7.2-6,11.2c0,3.2,1.1,5.9,3.3,8.1c1,1.2,2.1,2.1,3.4,2.8c1.2,0.7,2.8,1.3,4.8,1.7
			c2,0.4,3.7,0.8,5.1,1c1.4,0.2,3.8,0.5,7,1c3.2,0.4,5.8,0.8,7.8,1.1c7.5,1.2,16.1,2.8,25.7,5c16.8,3.3,27.9,11.3,33.1,23.7
			C570.5,227.9,571.5,233.4,571.5,239.2z"/>
		<path class="st1" d="M718.5,210.9c0,23.5-5.9,42.1-17.6,55.8c-8.9,10-20.5,16.7-35.1,20c-7,1.6-15.2,2.4-24.6,2.4h-60.3V135.3h49
			c6.2,0,10.9,0.1,13.9,0.2c22.4,1.5,39.3,7,51,16.6c4.5,3.3,8.6,8,12.2,13.9C714.7,178.1,718.5,193,718.5,210.9z M680,212.2
			c0-13.8-2.9-24.4-8.7-31.8c-4.4-5.2-9.4-8.7-15-10.5c-4.4-1.5-11.4-2.2-21.1-2.2h-15.5v90.4h11.8c15.7,0,27.2-2.7,34.4-8.1
			C675.3,243,680,230.4,680,212.2z"/>
		<path class="st1" d="M864.9,254.2c-4.4,6.7-7.7,11.4-10,14.2c-3.2,3.6-6.9,7.1-11,10.3c-4.1,3.3-10.4,6.6-18.8,9.9
			c-8.4,3.3-17.2,5-26.4,5c-11,0-21.5-2.2-31.4-6.5c-9.4-4.2-17.3-9.9-23.5-17.2c-6.2-7.3-10.6-15-13.1-23.2
			c-2.5-8.2-4.1-14.8-4.8-19.9c-0.7-5.1-1.1-10-1.1-14.8c0-21.5,6.2-39.8,18.7-54.9c14.2-17.7,32.8-26.6,55.8-26.6
			c10.5,0,20.4,2.1,29.9,6.2c9.5,4.1,17.6,10.1,24.3,17.8c2.9,3.3,6.5,8.6,10.7,15.9l-30.3,15c-1.7-3.6-3.4-6.5-5-8.5
			c-1.3-1.9-2.9-3.8-4.9-5.8c-2-2-5.1-4-9.4-6c-4.3-2-8.8-3-13.6-3c-9.1,0-16.9,3-23.3,9.1c-9.7,9-14.6,22.3-14.6,39.9
			c0,3.8,0.2,7.3,0.7,10.5c2.2,17.3,8.9,29.1,20.3,35.5c4.8,2.9,10.5,4.4,17,4.4c4.8,0,9.1-0.7,13-2.2c3.8-1.4,7.1-3.6,9.8-6.3
			c2.7-2.8,4.6-4.9,5.8-6.5c1.2-1.6,2.5-3.8,4.1-6.5c0.3-0.4,0.5-0.8,0.7-1.1L864.9,254.2z"/>
	</g>
	<g>
		<path class="st2" d="M921.3,232.2l-16.7,0l0,22.2l-9.2,0l0-22.2l-47.7,0.1l0-6.4l46.9-60l10,0l0.1,59.4l16.7,0L921.3,232.2z
			 M895.4,225.3l-0.1-47l-37.2,47.1L895.4,225.3z"/>
	</g>
	<g>
		<path class="st3" d="M947.7,168.9h-11.3v-3h36.1v3h-10.8v82.5h19.8c6.8,0.2,12.3-1.8,16.2-5.8c4-4.1,6.9-12,8.7-23.9h2.9v32.7h-73
			v-3h11.3V168.9z"/>
		<path class="st3" d="M1019.1,251.4h10.3V194h-10.3v-3h32v3h-10.3v57.4h10.3v3h-32V251.4z"/>
		<path class="st3" d="M1069.7,251.4h11V194h-5.7c-2.5,0-4.5,0.4-6.2,1.3c-1.7,0.9-3,2.2-4.1,3.9c-2.1,3.4-3.1,7.5-3,12.3h-3.6V191
			h56.6v20.5h-3.6c0-2.4-0.2-4.6-0.5-6.7c-0.5-2.1-1.3-4-2.3-5.6c-2.1-3.4-5.6-5.1-10.5-5.2h-5.7v57.4h10.9v3h-33.4V251.4z"/>
	</g>
</g>
</svg>
